# xmcd CD database file
#
# Track frame offsets:
#	225
#	11097
#	23397
#	38772
#	55575
#	67717
#	87620
#	97367
#	109050
#	122475
#	136537
#	146700
#	159300
#
# Disc length: 2226 seconds
#
# Revision: 2
# Processed by: cddbd v1.5PL3 Copyright (c) Steve Scherf et al.
# Submitted via: CDex 1.50
#
DISCID=9f08af0d
DTITLE=Stompin' Tom Connors - Stompin' Tom Meets 'Muk Tuk' Annie
DYEAR=1974
DGENRE=Country
TTITLE0=Streaker's Dream
TTITLE1=My Home by the Fraser
TTITLE2=Bibles and Rifles
TTITLE3=Paddlewheeler
TTITLE4=Unfaithful Heart
TTITLE5=Ballad of Muk Tuk Annie
TTITLE6=We're Trading Hearts
TTITLE7=Oh Chihuahua
TTITLE8=Zakuska Polka
TTITLE9=I Saw the Teardrop
TTITLE10=Wishful Hummin'
TTITLE11=Renfrew Valley
TTITLE12=My Old Canadian Home
EXTD=YEAR: 1974
EXTT0=
EXTT1=
EXTT2=
EXTT3=
EXTT4=
EXTT5=
EXTT6=
EXTT7=
EXTT8=
EXTT9=
EXTT10=
EXTT11=
EXTT12=
PLAYORDER=
